<svg xmlns="http://www.w3.org/2000/svg" width="86.891" height="70.073" viewBox="0 0 86.891 70.073">
  <g id="Group_328" data-name="Group 328" transform="translate(-8 -56)">
    <path id="Path_61" data-name="Path 61" d="M121.977,106.323h1.945a4.2,4.2,0,1,0,0-2.8h-1.676a7.657,7.657,0,0,0-4.267-6.135,7.586,7.586,0,0,0,.427-2.274h2.472a1.4,1.4,0,0,0,1.4-1.4v-4.2h1.643a4.2,4.2,0,1,0,0-2.8h-3.045a1.4,1.4,0,0,0-1.4,1.4v4.2h-1.5a7.6,7.6,0,0,0-6.513-5.015v-.077a7.585,7.585,0,0,0-13-5.308,7.585,7.585,0,0,0-13,5.308v.077a7.6,7.6,0,0,0-6.513,5.016h-1.5V88.1a1.4,1.4,0,0,0-1.4-1.4H73.161a4.2,4.2,0,1,0,0,2.8h1.468v4.2a1.4,1.4,0,0,0,1.4,1.4H78.5a7.585,7.585,0,0,0,.427,2.274,7.657,7.657,0,0,0-4.267,6.135h-1.5a4.2,4.2,0,1,0,0,2.8H74.93a7.675,7.675,0,0,0,4,4.733,7.634,7.634,0,0,0-.347,3.675H76.03a1.4,1.4,0,0,0-1.4,1.4v4.2H73.161a4.2,4.2,0,1,0,0,2.8H76.03a1.4,1.4,0,0,0,1.4-1.4v-4.2h2.176a7.592,7.592,0,0,0,5.842,3.614v.077a7.585,7.585,0,0,0,13,5.308,7.585,7.585,0,0,0,13-5.308v-.077a7.592,7.592,0,0,0,5.842-3.614h2.176v4.2a1.4,1.4,0,0,0,1.4,1.4h3.045a4.2,4.2,0,1,0,0-2.8h-1.643v-4.2a1.4,1.4,0,0,0-1.4-1.4h-2.552a7.634,7.634,0,0,0-.347-3.675,7.675,7.675,0,0,0,4-4.733Zm5.907-2.8a1.4,1.4,0,1,1-1.4,1.4,1.4,1.4,0,0,1,1.4-1.4Zm0-16.818a1.4,1.4,0,1,1-1.4,1.4A1.4,1.4,0,0,1,127.885,86.7ZM69.2,89.506a1.4,1.4,0,1,1,1.4-1.4A1.4,1.4,0,0,1,69.2,89.506Zm0,16.818a1.4,1.4,0,1,1,1.4-1.4,1.4,1.4,0,0,1-1.4,1.4Zm0,16.818a1.4,1.4,0,1,1,1.4-1.4A1.4,1.4,0,0,1,69.2,123.141Zm27.845.692a4.781,4.781,0,0,1-8.712-3.47,6.836,6.836,0,0,0,3.5-4.148,1.4,1.4,0,0,0-2.687-.8,4.031,4.031,0,0,1-3.842,2.862c-.044,0-.088,0-.131.007a4.785,4.785,0,0,1-3.124-7.272,1.4,1.4,0,0,0-.878-2.123,4.783,4.783,0,0,1,0-9.337,1.4,1.4,0,0,0,.878-2.123,4.785,4.785,0,0,1,3.125-7.272c.042,0,.086.007.13.007a4.031,4.031,0,0,1,3.842,2.862,1.4,1.4,0,0,0,1.344,1,1.44,1.44,0,0,0,.4-.058,1.4,1.4,0,0,0,.944-1.743,6.836,6.836,0,0,0-3.5-4.148,4.782,4.782,0,0,1,8.712-3.47Zm30.841-3.495a1.4,1.4,0,1,1-1.4,1.4A1.4,1.4,0,0,1,127.885,120.338ZM115.734,108.89a1.4,1.4,0,0,0-.878,2.123,4.785,4.785,0,0,1-3.113,7.27c-.032,0-.061-.005-.091-.005a4.031,4.031,0,0,1-3.844-2.862,1.4,1.4,0,0,0-2.687.8,6.836,6.836,0,0,0,3.451,4.122,4.848,4.848,0,0,1,.082.89,4.783,4.783,0,0,1-8.808,2.582V84.634a4.782,4.782,0,0,1,8.808,2.582,4.847,4.847,0,0,1-.082.89,6.836,6.836,0,0,0-3.451,4.122,1.4,1.4,0,0,0,.944,1.743,1.44,1.44,0,0,0,.4.058,1.4,1.4,0,0,0,1.344-1,4.031,4.031,0,0,1,3.844-2.862c.03,0,.06,0,.091-.005a4.785,4.785,0,0,1,3.113,7.27,1.4,1.4,0,0,0,.878,2.123,4.783,4.783,0,0,1,0,9.337Z" transform="translate(-47.008 -19.491)" fill="#0075d3"/>
    <path id="Path_62" data-name="Path 62" d="M181.956,186.631c.707-.9,1.115-1.035,1.192-1.052a.609.609,0,0,1,.148.167.273.273,0,0,1-.015-.029l2.507-1.254a3.11,3.11,0,0,0-2.455-1.685c-1.21-.075-2.37.6-3.53,2.059a14.731,14.731,0,0,0-1.648-1,1.4,1.4,0,0,0-1.256,2.505,13.686,13.686,0,0,1,2.552,1.767c1.041.92,2.281,2.359,2.281,3.988a1.4,1.4,0,1,0,2.8,0A7.919,7.919,0,0,0,181.956,186.631Z" transform="translate(-138.695 -104.565)" fill="#0075d3"/>
    <path id="Path_63" data-name="Path 63" d="M93.489,112.059h-4.2V60.905A4.911,4.911,0,0,0,84.38,56H18.511a4.911,4.911,0,0,0-4.905,4.905v51.154H9.4a1.4,1.4,0,0,0-1.4,1.4v7.708a4.911,4.911,0,0,0,4.905,4.905H89.986a4.911,4.911,0,0,0,4.905-4.905V113.46A1.4,1.4,0,0,0,93.489,112.059ZM16.409,60.905a2.1,2.1,0,0,1,2.1-2.1H84.38a2.1,2.1,0,0,1,2.1,2.1v51.154H16.409Zm41.65,53.956-.7,2.8H45.533l-.7-2.8Zm34.029,6.307a2.1,2.1,0,0,1-2.1,2.1H12.905a2.1,2.1,0,0,1-2.1-2.1v-6.307H41.942l1.137,4.544a1.4,1.4,0,0,0,1.359,1.062H58.453a1.4,1.4,0,0,0,1.359-1.061l1.137-4.544H92.088Z" fill="#0075d3"/>
    <path id="Path_64" data-name="Path 64" d="M296.726,193.5a5.976,5.976,0,0,0-4.544,5.655,1.406,1.406,0,0,1-1.4,1.391h-.007a1.4,1.4,0,0,1-1.394-1.4,9.038,9.038,0,0,1,2.924-6.433,1.417,1.417,0,0,0-1.284-.923,2.572,2.572,0,0,0-1.027.207,1.393,1.393,0,0,1-1.873-.629,1.408,1.408,0,0,1,.632-1.885,4.406,4.406,0,0,1,5.932,1.745,9.634,9.634,0,0,1,1.363-.448,1.4,1.4,0,1,1,.68,2.719Z" transform="translate(-230.926 -109.685)" fill="#0075d3"/>
  </g>
</svg>
