<svg xmlns="http://www.w3.org/2000/svg" width="78.992" height="83.241" viewBox="0 0 78.992 83.241">
  <g id="Group_329" data-name="Group 329" transform="translate(-1.853)">
    <path id="Path_65" data-name="Path 65" d="M74.91,51.614h-.026A46.18,46.18,0,0,0,68,41.523c8.2-9.545,10.941-18.349,7.3-23.759-3.3-4.877-11.072-6.086-21.475-3.381C50.29,5.215,45.1,0,39.414,0A10.529,10.529,0,0,0,32.8,2.5a5.887,5.887,0,0,0-6.722,9.4c-.38.832-.747,1.7-1.088,2.614-10.482-2.692-18.3-1.456-21.58,3.459C-.208,23.408,2.57,32.2,10.824,41.679,2.622,51.237-.1,60.054,3.539,65.464a9.472,9.472,0,0,0,3.053,2.822,5.928,5.928,0,0,0,11.557,1.795A44.633,44.633,0,0,0,25,68.832c3.525,9.181,8.726,14.409,14.413,14.409,5.713,0,10.915-5.267,14.452-14.513a40.507,40.507,0,0,0,9.827,1.417c5.5,0,9.578-1.639,11.727-4.864A8.509,8.509,0,0,0,76.429,63.2a5.887,5.887,0,0,0-1.52-11.587ZM53.578,28.545c-1.205-.871-2.463-1.73-3.734-2.575-2.07-1.365-4.219-2.653-6.381-3.849a74.458,74.458,0,0,1,7.98-3.147A66.444,66.444,0,0,1,53.578,28.545ZM36.348,7.881a5.755,5.755,0,0,0-.76-2.822,6.638,6.638,0,0,1,3.826-1.339c3.931,0,7.9,4.356,10.8,11.73a80.227,80.227,0,0,0-10.862,4.513,78.271,78.271,0,0,0-10.757-4.408c.249-.65.511-1.274.786-1.886a6.475,6.475,0,0,0,1.022.1A5.919,5.919,0,0,0,36.348,7.881ZM30.413,5.709a2.172,2.172,0,1,1-2.188,2.172A2.184,2.184,0,0,1,30.413,5.709ZM27.36,19.09a73.4,73.4,0,0,1,7.9,3.056c-2.162,1.222-4.3,2.523-6.342,3.888-1.245.832-2.476,1.678-3.656,2.549A65.406,65.406,0,0,1,27.36,19.09Zm-20.82.936c2.254-3.381,8.766-4.1,17.217-1.99a74.35,74.35,0,0,0-2.7,13.785,84.223,84.223,0,0,0-7.7,7.074C6.684,31.106,4.024,23.811,6.54,20.027ZM20.651,46.218c-1.69-1.482-3.289-3-4.756-4.539,1.481-1.561,3.066-3.082,4.756-4.591-.079,1.509-.1,3.017-.1,4.526C20.533,43.162,20.573,44.7,20.651,46.218Zm-8.124,24.2a2.172,2.172,0,1,1,2.188-2.172A2.184,2.184,0,0,1,12.528,70.419Zm5.595-4.083a5.909,5.909,0,0,0-10.259-1.7,5.188,5.188,0,0,1-1.205-1.248c-2.581-3.836-.013-10.989,6.709-18.934a83.458,83.458,0,0,0,7.691,7,74.891,74.891,0,0,0,2.725,13.837A41.522,41.522,0,0,1,18.123,66.335ZM25.264,54.67Q27.091,56,29,57.245c2.07,1.365,4.206,2.653,6.381,3.862a72.2,72.2,0,0,1-7.98,3.134A66.837,66.837,0,0,1,25.264,54.67ZM39.414,79.5c-3.944,0-7.914-4.356-10.81-11.743A77.539,77.539,0,0,0,39.467,63.24,78.554,78.554,0,0,0,50.25,67.649C47.355,75.113,43.371,79.5,39.414,79.5ZM51.482,64.138a76.415,76.415,0,0,1-7.914-3.056c2.149-1.209,4.285-2.51,6.368-3.888,1.245-.832,2.476-1.691,3.656-2.562A68.8,68.8,0,0,1,51.482,64.138Zm2.712-14.669c-2,1.587-4.127,3.134-6.355,4.617-2.725,1.808-5.529,3.472-8.373,4.981-2.856-1.5-5.687-3.147-8.4-4.929-2.241-1.469-4.376-3.017-6.407-4.6-.236-2.575-.367-5.228-.367-7.907,0-2.627.131-5.267.354-7.868,2-1.587,4.127-3.147,6.368-4.63a92.739,92.739,0,0,1,8.359-4.955,93.581,93.581,0,0,1,8.4,4.916c2.254,1.482,4.389,3.03,6.407,4.617.236,2.588.367,5.228.367,7.907C54.548,44.241,54.417,46.868,54.194,49.469Zm17.99-29.624c2.542,3.771-.092,11.08-6.722,18.921a79.631,79.631,0,0,0-7.678-6.983A74.521,74.521,0,0,0,55.046,17.92C63.55,15.761,69.878,16.451,72.184,19.845ZM58.191,37.01c1.69,1.482,3.276,3,4.743,4.539-1.467,1.535-3.04,3.069-4.743,4.578.079-1.5.1-3,.1-4.5C58.308,40.066,58.269,38.532,58.191,37.01ZM72.3,63.2c-2.254,3.381-8.766,4.1-17.217,1.99A75.061,75.061,0,0,0,57.8,51.38a84.212,84.212,0,0,0,7.678-7.074,42.636,42.636,0,0,1,5.844,8.544,5.826,5.826,0,0,0,1.153,10.013C72.407,62.98,72.368,63.1,72.3,63.2Zm2.647-3.524H74.9a2.172,2.172,0,1,1,2.2-2.172A2.167,2.167,0,0,1,74.949,59.677Z" transform="translate(0)" fill="#0075d3"/>
    <path id="Path_66" data-name="Path 66" d="M28.649,37.614,26.5,35.727l2.149-1.887a1.875,1.875,0,1,0-2.476-2.817l-3.76,3.289a1.869,1.869,0,0,0-.642,1.415,1.89,1.89,0,0,0,.642,1.415l3.76,3.289A1.861,1.861,0,0,0,27.4,40.9a1.906,1.906,0,0,0,1.415-.642A1.859,1.859,0,0,0,28.649,37.614Zm11.53-6.578A1.875,1.875,0,1,0,37.7,33.853l2.149,1.887L37.7,37.627a1.875,1.875,0,1,0,2.476,2.817l3.76-3.289a1.869,1.869,0,0,0,.642-1.415,1.89,1.89,0,0,0-.642-1.415ZM35.79,24.852a1.882,1.882,0,0,0-2.267,1.389L29.186,44.375a1.889,1.889,0,0,0,1.389,2.267,1.628,1.628,0,0,0,.432.052,1.861,1.861,0,0,0,1.821-1.441l4.337-18.134A1.858,1.858,0,0,0,35.79,24.852Z" transform="translate(6.18 7.365)" fill="#0075d3"/>
  </g>
</svg>
