<svg xmlns="http://www.w3.org/2000/svg" width="79.242" height="79.237" viewBox="0 0 79.242 79.237">
  <path id="Path_67" data-name="Path 67" d="M5.962,1.06A2.568,2.568,0,0,0,3.414,3.6v9.067a2.578,2.578,0,0,0,2.548,2.548h.282v3.081a1.415,1.415,0,0,0,2.413,1l4.115-4.085h7.907a2.571,2.571,0,0,0,2.54-2.548V3.6a2.561,2.561,0,0,0-2.54-2.537Zm38.826,0a1.417,1.417,0,0,0,.135,2.83H60.5a1.415,1.415,0,1,0,0-2.83H44.923q-.068,0-.135,0ZM6.244,3.89H20.388v8.493h-8.2a1.415,1.415,0,0,0-1,.406l-2.111,2.1v-1.1a1.415,1.415,0,0,0-1.42-1.409H6.244ZM9.071,6.717a1.415,1.415,0,1,0,1.415,1.415A1.415,1.415,0,0,0,9.071,6.717Zm4.245,0a1.415,1.415,0,1,0,1.415,1.415A1.415,1.415,0,0,0,13.316,6.717Zm4.245,0a1.415,1.415,0,1,0,1.415,1.415A1.415,1.415,0,0,0,17.561,6.717Zm9.938,0a2.477,2.477,0,0,0-2.379,2.548v3.4A2.477,2.477,0,0,0,27.5,15.212h1.86V36.437h-.627c-1.764-1.09-3.745-2.334-5.408-3.4a4.391,4.391,0,0,0-2.457-.857H15.217c-1.415,0-3.923-.107-5.734,1.705L5.24,37.429q-.037.029-.072.061a5.769,5.769,0,0,0-1.9,2.581L1.313,45.388A4.248,4.248,0,0,0,9.295,48.3l1.669-4.563v5.43a4.27,4.27,0,0,0,4.253,4.239h5.649a4.27,4.27,0,0,0,4.253-4.239V44.092a5.061,5.061,0,0,0,2.83.826h1.409v7.362a2.5,2.5,0,0,0,2.413,2.551H75.058a2.5,2.5,0,0,0,2.413-2.551V15.212h.448A2.479,2.479,0,0,0,80.3,12.664v-3.4A2.479,2.479,0,0,0,77.918,6.72Zm.45,2.83H77.47v2.833H27.949Zm4.239,5.663H74.637V52H32.188v-7.08h1.423a4.241,4.241,0,0,0,0-8.482H32.188Zm2.833,1.409a1.415,1.415,0,1,0,1.415,1.415,1.415,1.415,0,0,0-1.415-1.415Zm16.982,0a1.415,1.415,0,0,0-1.42,1.409v9.2a1.415,1.415,0,0,0,2.83,0v-3.54h5.663a1.415,1.415,0,0,0,1.42-1.409V18.031a1.415,1.415,0,0,0-1.42-1.409Zm19.807,0a1.415,1.415,0,1,0,1.415,1.415,1.415,1.415,0,0,0-1.415-1.415Zm-53.763,2.83A5.661,5.661,0,1,0,23.7,25.115a5.684,5.684,0,0,0-5.652-5.663Zm35.366,0h4.253v1.409H53.413ZM18.047,22.285a2.83,2.83,0,1,1-2.83,2.83A2.8,2.8,0,0,1,18.047,22.285Zm24.035,5.638a1.415,1.415,0,0,0-.984,2.435l.415.412-.415.415a1.415,1.415,0,1,0,2,2l.417-.417.42.417a1.415,1.415,0,1,0,2-2l-.415-.415.415-.412A1.415,1.415,0,0,0,44,28.284q-.036.032-.069.066l-.42.42-.417-.42A1.415,1.415,0,0,0,42.082,27.922Zm18.384,1.412a1.415,1.415,0,0,0-1.039.484l-2.711,2.711a1.375,1.375,0,0,0-.1.105c-.029.037-.057.076-.083.116a1.41,1.41,0,0,0-.072.122A1.359,1.359,0,0,0,56.4,33a1.418,1.418,0,0,0,2.316,1.537l.356-.359v9.333a1.367,1.367,0,0,1-.848,1.3,1.486,1.486,0,0,1-.561.108H52a1.415,1.415,0,1,0,0,2.83h5.663a4.179,4.179,0,0,0,.848-.086,4.266,4.266,0,0,0,3.391-4.154V34.187l.345.348a1.415,1.415,0,1,0,2-2.006l-2.614-2.614A1.415,1.415,0,0,0,60.466,29.335Zm7.08,4.25a1.415,1.415,0,0,0-.981,2.435l.412.412-.412.412a1.419,1.419,0,0,0,2.006,2.006l.412-.412.412.412A1.419,1.419,0,0,0,71.4,36.843l-.412-.412.412-.412a1.419,1.419,0,0,0-1.935-2.075c-.025.022-.049.045-.072.069l-.412.412-.412-.412a1.415,1.415,0,0,0-1.025-.428ZM15.217,35.017h1.409v7.069a1.415,1.415,0,1,0,2.83,0V35.017h1.409a5.906,5.906,0,0,1,1,.459c.259.155.468.3.71.45l4.994,3.123a1.415,1.415,0,0,0,.752.207h5.284a1.415,1.415,0,0,1,0,2.83h-5.66c-1.156,0-.845-.115-1.807-.594l-.019-.011-1.713-.992a1.415,1.415,0,0,0-2.12,1.222v7.459a1.384,1.384,0,0,1-1.423,1.409H15.217a1.382,1.382,0,0,1-1.42-1.409V40.687A1.415,1.415,0,0,0,11.478,39.6L8.866,41.774a1.415,1.415,0,0,0-.417.605L6.631,47.331a1.388,1.388,0,0,1-1.818.846,1.382,1.382,0,0,1-.835-1.818L5.92,41.044c.4-1.1.393-.732,1.2-1.506l4.27-3.562q.049-.039.094-.083c.764-.764,2.316-.876,3.731-.876Zm31.127,2.83a3.535,3.535,0,0,0-.71,7,3.516,3.516,0,0,0,.71.072,3.536,3.536,0,1,0,0-7.072Zm0,2.83a.692.692,0,0,1,.71.71.71.71,0,0,1-1.42,0,.744.744,0,0,1,.053-.282.692.692,0,0,1,.658-.428ZM35.021,47.751a1.415,1.415,0,1,0,1.415,1.415A1.415,1.415,0,0,0,35.021,47.751Zm36.789,0a1.415,1.415,0,1,0,1.415,1.415A1.415,1.415,0,0,0,71.81,47.751Zm-41.031,9.91a5.656,5.656,0,1,0,5.663,5.649A5.672,5.672,0,0,0,30.779,57.662Zm18.395,0a5.656,5.656,0,1,0,5.663,5.649A5.672,5.672,0,0,0,49.174,57.662Zm18.395,0a5.656,5.656,0,1,0,5.66,5.649A5.674,5.674,0,0,0,67.568,57.662ZM30.779,60.48a2.831,2.831,0,1,1-2.83,2.83A2.811,2.811,0,0,1,30.779,60.48Zm18.395,0a2.831,2.831,0,1,1-2.83,2.83A2.809,2.809,0,0,1,49.174,60.48Zm18.395,0a2.831,2.831,0,1,1-2.83,2.83A2.809,2.809,0,0,1,67.568,60.48ZM27.949,70.393a4.267,4.267,0,0,0-4.25,4.239v4.253a1.415,1.415,0,0,0,1.42,1.409H36.442a1.415,1.415,0,0,0,1.409-1.409V74.633a4.258,4.258,0,0,0-4.239-4.239Zm18.395,0a4.269,4.269,0,0,0-4.253,4.239v4.253A1.415,1.415,0,0,0,43.514,80.3H54.836a1.415,1.415,0,0,0,1.409-1.409V74.633A4.26,4.26,0,0,0,52,70.393Zm18.395,0A4.26,4.26,0,0,0,60.5,74.633v4.253A1.415,1.415,0,0,0,61.906,80.3H73.228a1.415,1.415,0,0,0,1.409-1.409V74.633A4.258,4.258,0,0,0,70.4,70.393Zm-36.789,2.83h5.663a1.373,1.373,0,0,1,1.409,1.409v2.833H26.529V74.633a1.382,1.382,0,0,1,1.42-1.409Zm18.395,0H52a1.373,1.373,0,0,1,1.409,1.409v2.833h-8.49V74.633a1.382,1.382,0,0,1,1.42-1.409Zm18.395,0H70.4a1.373,1.373,0,0,1,1.409,1.409v2.833H63.315V74.633A1.384,1.384,0,0,1,64.738,73.223Z" transform="translate(-1.058 -1.059)" fill="#0075d3"/>
</svg>
