<svg xmlns="http://www.w3.org/2000/svg" width="80.077" height="80.094" viewBox="0 0 80.077 80.094">
  <g id="Group_330" data-name="Group 330" transform="translate(0 0.01)">
    <path id="Path_68" data-name="Path 68" d="M42.356,51.685H19V45.779a5,5,0,0,1,4.021-4.9c5.422-1.084,2.986-.868,10.994-.868l4.321.868a5,5,0,0,1,4.021,4.9Z" transform="translate(12.697 26.731)" fill="#0075d3"/>
    <path id="Path_69" data-name="Path 69" d="M28.673,46.015A6.673,6.673,0,0,1,22,39.341V37.673a6.673,6.673,0,0,1,13.346,0v1.668A6.673,6.673,0,0,1,28.673,46.015Z" transform="translate(14.702 20.724)" fill="#0075d3"/>
    <path id="Path_70" data-name="Path 70" d="M72.032,45.915l-1.785-.367A9.259,9.259,0,0,0,72.4,38.341a8.341,8.341,0,0,0-16.683,0,9.159,9.159,0,0,0,2.152,7.207c-2.152.434-3.82.584-5.489,2.519a8.341,8.341,0,0,0-5.489-2.519,9.259,9.259,0,0,0,2.152-7.207,8.341,8.341,0,0,0-16.683,0,9.159,9.159,0,0,0,2.152,7.207c-2.152.434-3.82.584-5.489,2.519a8.341,8.341,0,0,0-5.489-2.519,9.259,9.259,0,0,0,2.152-7.207A8.341,8.341,0,0,0,9,38.341a9.159,9.159,0,0,0,2.152,7.207l-1.785.367A6.673,6.673,0,0,0,4,52.455v5.906a1.668,1.668,0,0,0,1.668,1.668H75.736A1.668,1.668,0,0,0,77.4,58.361V52.455A6.673,6.673,0,0,0,72.032,45.915ZM59.053,38.341a5,5,0,0,1,10.01,0V40.01a5,5,0,1,1-10.01,0Zm-23.356,0a5,5,0,0,1,10.01,0V40.01a5,5,0,1,1-10.01,0Zm-23.356,0a5,5,0,0,1,10.01,0V40.01a5,5,0,1,1-10.01,0Zm-5,14.114a3.337,3.337,0,0,1,2.686-3.337l4.154-.767c7.707,0,5.205-.234,10.493.834a3.337,3.337,0,0,1,2.686,3.337v4.171H7.337Zm23.356,0a3.337,3.337,0,0,1,2.686-3.337l4.154-.767c7.707,0,5.205-.234,10.493.834a3.337,3.337,0,0,1,2.686,3.337v4.171H30.692Zm43.375,4.237H54.048V52.455a3.337,3.337,0,0,1,2.686-3.337l4.154-.767c7.707,0,5.205-.234,10.493.834a3.337,3.337,0,0,1,2.686,3.337Z" transform="translate(2.673 20.055)" fill="#0075d3"/>
    <path id="Path_71" data-name="Path 71" d="M26.692,25.8v7.574H0V25.8a5,5,0,0,1,4.021-4.9l1.668-.35a11.678,11.678,0,0,0,15.181,0l1.668.35a5,5,0,0,1,4.154,4.9ZM19.252,2.443a8.341,8.341,0,0,0-13.7,2.9C4.855,7.231,5,8.465,5,11.685a8.341,8.341,0,0,0,16.683,0C21.688,8.1,22.055,5.279,19.252,2.443Zm-.9,9.242a5,5,0,0,1-10.01,0,15.982,15.982,0,0,1,.217-4.771,21.521,21.521,0,0,0,9.793,1.818Z" transform="translate(0 0)" fill="#0075d3"/>
    <path id="Path_72" data-name="Path 72" d="M39.516,36.513l-.484.5V26.019a5,5,0,0,0-5-5H25.686a1.668,1.668,0,0,0,0,3.337h8.341A1.668,1.668,0,0,1,35.7,26.019V37.013l-.484-.5a1.675,1.675,0,0,0-2.369,2.369c3.487,3.47,3.437,3.5,3.887,3.687a1.535,1.535,0,0,0,1.268,0c.417-.167.217,0,3.887-3.687a1.675,1.675,0,1,0-2.369-2.369Zm-23.356,0-.484.5V34.361a1.668,1.668,0,1,0-3.337,0v2.653l-.484-.5a1.675,1.675,0,0,0-2.369,2.369c3.487,3.47,3.437,3.5,3.887,3.687a1.535,1.535,0,0,0,1.268,0c.417-.167.217,0,3.887-3.687a1.675,1.675,0,1,0-2.369-2.369Zm49.081,0a1.668,1.668,0,0,0-2.369,0l-.484.5V14.341A8.341,8.341,0,0,0,54.046,6H25.686a1.668,1.668,0,0,0,0,3.337H54.046a5,5,0,0,1,5,5V37.013l-.484-.5A1.675,1.675,0,0,0,56.2,38.882c3.587,3.57,3.62,3.82,4.521,3.82s.968-.267,4.521-3.82a1.668,1.668,0,0,0,0-2.369Z" transform="translate(6.012 4.017)" fill="#0075d3"/>
  </g>
</svg>
