<svg xmlns="http://www.w3.org/2000/svg" width="71.406" height="64" viewBox="0 0 71.406 64">
  <g id="Group_331" data-name="Group 331" transform="translate(-1.36 -2.62)">
    <path id="Path_73" data-name="Path 73" d="M71.332,2.62H3.067A1.707,1.707,0,0,0,1.36,4.327V51.089A1.741,1.741,0,0,0,3.067,52.8H36.653L33.24,58.461a1.707,1.707,0,0,0,1.468,2.56h5.53l2.8,4.779a1.707,1.707,0,0,0,1.468.819h0a1.6,1.6,0,0,0,1.468-.853l4.744-8.158,4.71,8.158a1.6,1.6,0,0,0,1.468.853h0a1.707,1.707,0,0,0,1.468-.819l2.8-4.779h5.53a1.707,1.707,0,0,0,1.468-2.56L64.745,52.8h6.315a1.707,1.707,0,0,0,1.707-1.707V4.327A1.707,1.707,0,0,0,71.332,2.62ZM44.5,61.567,42.695,58.5a1.809,1.809,0,0,0-1.468-.853h-3.55l4.3-7.509a.512.512,0,0,1,.785,0,12.561,12.561,0,0,0,5.325,3.413.819.819,0,0,1,.478,1.161ZM50.716,50.44a6.758,6.758,0,1,1,.135,0Zm9.455,7.2A1.809,1.809,0,0,0,58.7,58.5l-1.809,3.072L52.9,54.741a.785.785,0,0,1,.512-1.161,10.411,10.411,0,0,0,5.222-3.413.478.478,0,0,1,.785,0l4.3,7.509Zm9.318-8.26H63.038L60.922,45.7a10.855,10.855,0,0,0,.2-2.116,10.24,10.24,0,0,0-20.48,0,10.854,10.854,0,0,0,.2,2.116l-2.116,3.686H4.773V6.033H69.626Z" transform="translate(0 0)" fill="#0075d3"/>
    <path id="Path_74" data-name="Path 74" d="M48.4,36.129H45.154a1.707,1.707,0,1,0,0,3.413H48.4a1.707,1.707,0,1,0,0-3.413ZM9.042,40.635H24.708a5.564,5.564,0,1,0,0-11.093H9.042a5.564,5.564,0,1,0,0,11.093Zm0-7.68H24.708a2.15,2.15,0,1,1,0,4.267H9.042a2.15,2.15,0,1,1,0-4.267ZM28.429,8.413H37.85A1.707,1.707,0,1,0,37.85,5H28.429a1.707,1.707,0,0,0-1.707,1.707,1.741,1.741,0,0,0,1.707,1.707ZM19.964,14.83H46.041a1.707,1.707,0,1,0,0-3.413H19.964a1.707,1.707,0,1,0,0,3.413Zm0,6.588H46.041a1.707,1.707,0,1,0,0-3.413H19.964a1.707,1.707,0,0,0,0,3.413Z" transform="translate(4.06 5.744)" fill="#0075d3"/>
  </g>
</svg>
