<svg xmlns="http://www.w3.org/2000/svg" width="67.565" height="80.952" viewBox="0 0 67.565 80.952">
  <g id="Group_332" data-name="Group 332" transform="translate(-6.2 -1)">
    <path id="Path_75" data-name="Path 75" d="M50.589,22.945a1.266,1.266,0,0,1-1.263-1.263,1.263,1.263,0,0,0-2.526,0,3.679,3.679,0,0,0,2.526,3.536v.631a1.263,1.263,0,1,0,2.526,0v-.631a3.679,3.679,0,0,0,2.526-3.536,3.8,3.8,0,0,0-3.789-3.789,1.263,1.263,0,1,1,1.263-1.263,1.263,1.263,0,1,0,2.526,0,3.679,3.679,0,0,0-2.526-3.536v-.631a1.263,1.263,0,1,0-2.526,0v.631A3.679,3.679,0,0,0,46.8,16.63a3.8,3.8,0,0,0,3.789,3.789,1.263,1.263,0,0,1,0,2.526Z" transform="translate(10.674 2.682)" fill="#0075d3"/>
    <path id="Path_76" data-name="Path 76" d="M53.306,31.562a12.354,12.354,0,1,0-1.768-1.768L41.309,40.024V22.974a7.7,7.7,0,0,0,6.314-7.451c0-3.789-5.936-12.882-6.567-13.892a1.3,1.3,0,0,0-2.147,0c-.631,1.01-6.567,10.229-6.567,13.892a7.5,7.5,0,0,0,6.314,7.451v8.714L28.427,21.459A12.528,12.528,0,1,0,6.2,13.5a12.575,12.575,0,0,0,20.459,9.724l12,12v3.41a13.48,13.48,0,0,0-13.134-4.925,1.31,1.31,0,0,0-1.01,1.515A13.373,13.373,0,0,0,38.656,45.959v7.83H23a1.193,1.193,0,0,0-1.263,1.263v5.936A1.193,1.193,0,0,0,23,62.251h1.894l4.041,18.691a1.23,1.23,0,0,0,1.263,1.01H49.77a1.23,1.23,0,0,0,1.263-1.01l4.041-18.691h1.894a1.193,1.193,0,0,0,1.263-1.263V55.052a1.193,1.193,0,0,0-1.263-1.263H41.309V51.516a13.177,13.177,0,0,0,15.786-7.325,1.383,1.383,0,0,0,0-1.01,1.856,1.856,0,0,0-.631-.758A13.281,13.281,0,0,0,41.309,45.58V43.812Zm7.956-19.7A9.977,9.977,0,1,1,54.19,28.91h0a10.022,10.022,0,0,1-2.9-7.072A9.839,9.839,0,0,1,61.262,11.861ZM8.852,13.5A9.977,9.977,0,1,1,25.9,20.575h0a10.022,10.022,0,0,1-7.072,2.9A9.839,9.839,0,0,1,8.852,13.5Zm18.565,22.48A10.827,10.827,0,0,1,38.4,43.307,10.631,10.631,0,0,1,27.417,35.982ZM48.76,79.3H31.205L27.417,62.124H52.422Zm7.072-19.7H24.386v-3.41H55.832Zm-4.8-15.913a8.72,8.72,0,0,1,3.157.505,10.742,10.742,0,0,1-12.376,4.673A10.815,10.815,0,0,1,51.033,43.686ZM34.994,15.523c0-1.894,2.778-7.2,5.052-10.861C42.319,8.451,45.1,13.629,45.1,15.523a5.151,5.151,0,0,1-3.789,4.925v-6.82a1.263,1.263,0,1,0-2.526,0v6.82A5.009,5.009,0,0,1,34.994,15.523Z" fill="#0075d3"/>
    <path id="Path_77" data-name="Path 77" d="M16.989,11.293a1.263,1.263,0,1,1,1.263-1.263,1.263,1.263,0,1,0,2.526,0,3.679,3.679,0,0,0-2.526-3.536V5.863a1.263,1.263,0,0,0-2.526,0v.631A3.679,3.679,0,0,0,13.2,10.03a3.8,3.8,0,0,0,3.789,3.789,1.263,1.263,0,1,1-1.263,1.263,1.263,1.263,0,0,0-2.526,0,3.679,3.679,0,0,0,2.526,3.536v.631a1.263,1.263,0,0,0,2.526,0v-.631a3.679,3.679,0,0,0,2.526-3.536A3.8,3.8,0,0,0,16.989,11.293ZM33.533,74.565H43a1.23,1.23,0,0,0,1.263-1.01l1.515-7.072a1.288,1.288,0,1,0-2.526-.505l-1.263,6.062H33.533a1.263,1.263,0,1,0,0,2.526Z" transform="translate(1.84 0.946)" fill="#0075d3"/>
  </g>
</svg>
