<svg id="layer1" xmlns="http://www.w3.org/2000/svg" width="35.939" height="46.72" viewBox="0 0 35.939 46.72">
  <path id="path4544" d="M9.594,3A3.606,3.606,0,0,0,6,6.594V46.126A3.606,3.606,0,0,0,9.594,49.72H38.345a3.606,3.606,0,0,0,3.594-3.594V12.883s0-.009,0-.014,0-.009,0-.014q0-.032,0-.063,0-.014,0-.028a.9.9,0,0,0-.351-.611L32.8,3.379l-.014-.018A.9.9,0,0,0,32.055,3Zm0,1.8H31.157v5.391a3.606,3.606,0,0,0,3.594,3.594h5.391V46.126a1.774,1.774,0,0,1-1.8,1.8H9.594a1.774,1.774,0,0,1-1.8-1.8V6.594A1.774,1.774,0,0,1,9.594,4.8Zm23.36,1.27,5.917,5.917h-4.12a1.774,1.774,0,0,1-1.8-1.8Zm-18.945,16.7a.944.944,0,1,0,.091,0,.9.9,0,0,0-.091,0Zm3.594,0a.9.9,0,0,0,.091,1.8H33.852a.9.9,0,1,0,0-1.8H17.694A.9.9,0,0,0,17.6,22.766ZM14.009,26.36a.944.944,0,1,0,.091,0,.9.9,0,0,0-.091,0Zm3.594,0a.9.9,0,0,0,.091,1.8H33.852a.9.9,0,1,0,0-1.8H17.694A.9.9,0,0,0,17.6,26.36Zm-3.594,3.594a.944.944,0,1,0,.091,0,.9.9,0,0,0-.091,0Zm3.594,0a.9.9,0,0,0,.091,1.8H33.852a.9.9,0,1,0,0-1.8H17.694A.9.9,0,0,0,17.6,29.954Z" transform="translate(-6 -3)" fill="#fff"/>
</svg>
