<svg id="Group_209" data-name="Group 209" xmlns="http://www.w3.org/2000/svg" width="54.488" height="54.488" viewBox="0 0 54.488 54.488">
  <path id="Path_43" data-name="Path 43" d="M27.244,0A27.244,27.244,0,1,0,54.488,27.244,27.26,27.26,0,0,0,27.244,0Zm0,2.111A25.132,25.132,0,1,1,2.111,27.244,25.106,25.106,0,0,1,27.244,2.111ZM15.257,15.257v10.9h10.9v-10.9Zm13.077,0v10.9h10.9v-10.9Zm-10.9,2.18h6.539v6.539H17.436Zm-2.18,10.9v10.9h10.9v-10.9Zm13.077,0v10.9h10.9v-10.9Zm-10.9,2.18h6.539v6.539H17.436Zm13.077,0h6.539v6.539H30.513Z" fill="#fff"/>
</svg>
