<svg id="Group_210" data-name="Group 210" xmlns="http://www.w3.org/2000/svg" width="40.437" height="43.789" viewBox="0 0 40.437 43.789">
  <path id="Path_44" data-name="Path 44" d="M37.693,3.353H35.572V2.942a2.942,2.942,0,0,0-5.884,0v.411H15.648V2.942a2.942,2.942,0,0,0-5.884,0v.411H7.643A5.2,5.2,0,0,0,2.45,8.546V38.6a5.2,5.2,0,0,0,5.193,5.193h30.05A5.2,5.2,0,0,0,42.886,38.6V8.546A5.2,5.2,0,0,0,37.693,3.353Zm-6.315-.411a1.252,1.252,0,0,1,2.5,0v4.44a1.252,1.252,0,0,1-2.5,0Zm-19.924,0a1.252,1.252,0,1,1,2.5,0v4.44a1.252,1.252,0,0,1-2.5,0ZM41.2,38.6a3.51,3.51,0,0,1-3.5,3.5H7.643a3.51,3.51,0,0,1-3.5-3.5V14H41.2V38.6Zm0-26.287H4.14V8.546a3.505,3.505,0,0,1,3.5-3.5H9.764V7.389a2.942,2.942,0,0,0,5.884,0V5.043h14.04V7.389a2.942,2.942,0,0,0,5.884,0V5.043h2.121a3.505,3.505,0,0,1,3.5,3.5v3.763Z" transform="translate(-2.45)" fill="#fff"/>
  <path id="Path_45" data-name="Path 45" d="M20.857,43.171l18.98-17.05a.843.843,0,1,0-1.129-1.252L20.994,40.777l-6.705-7.6a.844.844,0,0,0-1.266,1.115Z" transform="translate(-5.722 -7.784)" fill="#fff"/>
</svg>
