<svg xmlns="http://www.w3.org/2000/svg" width="39.129" height="39.129" viewBox="0 0 39.129 39.129">
  <path id="_34_Online_Education_Computer_Distance_Learning_E_Learning" data-name="34 Online Education, Computer, Distance Learning, E Learning" d="M40.448,9.348H38.332V10.8h2.13a2.232,2.232,0,0,1,2.217,2.232V31.086H41.23V12.971a.725.725,0,0,0-.725-.725H38.332V13.7h1.449V31.086h-2.9V7.174A2.174,2.174,0,0,0,34.709,5H27.463a3.623,3.623,0,0,0-2.9,1.449A3.623,3.623,0,0,0,21.666,5H14.42a2.174,2.174,0,0,0-2.174,2.174V31.086h-2.9V13.7H10.8V12.246H8.623a.725.725,0,0,0-.725.725V31.086H6.449V13.029A2.232,2.232,0,0,1,8.681,10.8H10.8V9.348H8.7A3.688,3.688,0,0,0,5,13.029V34.651a3.688,3.688,0,0,0,3.681,3.681h12.26V42.68h-2.9v1.449H31.086V42.68h-2.9V38.332h12.26a3.688,3.688,0,0,0,3.681-3.681V13.029a3.688,3.688,0,0,0-3.681-3.681Zm-12.985-2.9h7.246a.725.725,0,0,1,.725.725V31.086H25.289V8.623A2.174,2.174,0,0,1,27.463,6.449Zm-7.246,0V9.761L19.3,8.84a.638.638,0,0,0-.536-.217.725.725,0,0,0-.514.21l-.935.949V6.449ZM13.7,7.174a.725.725,0,0,1,.725-.725h1.449v5.072a.725.725,0,0,0,1.232.514l1.667-1.667,1.645,1.659a.725.725,0,0,0,.529.217.609.609,0,0,0,.275-.058.725.725,0,0,0,.449-.667V6.449A2.174,2.174,0,0,1,23.84,8.623V31.086H13.7ZM26.738,42.68H22.391V38.332h4.348Zm13.71-5.8H8.681a2.232,2.232,0,0,1-2.232-2.232V32.535H42.68v2.116a2.232,2.232,0,0,1-2.232,2.232Zm-18.782-2.9h5.8v1.449h-5.8Zm-5.8-18.84h5.8v1.449h-5.8Zm0,4.348h5.8v1.449h-5.8Zm0,4.348h5.8v1.449h-5.8ZM33.26,16.594h-5.8V15.145h5.8Zm0,4.348h-5.8V19.492h5.8Zm0,4.348h-5.8V23.84h5.8Z" transform="translate(-5 -5)" fill="#fff"/>
</svg>
