<svg id="Group_211" data-name="Group 211" xmlns="http://www.w3.org/2000/svg" width="36.764" height="44.117" viewBox="0 0 36.764 44.117">
  <path id="Path_46" data-name="Path 46" d="M43.764,20.382a4.638,4.638,0,0,0-1.186-3.113,3.211,3.211,0,0,1-.814-2.136,3.483,3.483,0,0,1,.067-.66,4.892,4.892,0,0,0,.1-.943,4.679,4.679,0,0,0-3.22-4.442,3.154,3.154,0,0,1-2.037-2.037,4.622,4.622,0,0,0-.768-1.432,4.714,4.714,0,0,0-3.674-1.788,4.949,4.949,0,0,0-.949.1A3.233,3.233,0,0,1,28.5,3.189a4.682,4.682,0,0,0-6.195-.036.816.816,0,0,0-.08.062,3.124,3.124,0,0,1-2.754.718,4.914,4.914,0,0,0-.941-.1,4.712,4.712,0,0,0-3.672,1.786,4.618,4.618,0,0,0-.769,1.434,3.156,3.156,0,0,1-2.041,2.038,4.678,4.678,0,0,0-3.217,4.441,4.907,4.907,0,0,0,.1.94A3.466,3.466,0,0,1,9,15.132a3.208,3.208,0,0,1-.81,2.132,4.679,4.679,0,0,0,0,6.231A3.211,3.211,0,0,1,9,25.632a3.484,3.484,0,0,1-.067.66,4.892,4.892,0,0,0-.1.943,4.679,4.679,0,0,0,3.221,4.442,3.038,3.038,0,0,1,.787.405l-4.271,8.21a.735.735,0,0,0,.6,1.072l5.275.4,3.352,4.087a.736.736,0,0,0,.569.269c.025,0,.05,0,.076,0a.733.733,0,0,0,.576-.392L22.976,38.1a4.686,4.686,0,0,0,4.811,0l3.964,7.622a.733.733,0,0,0,.576.392c.026,0,.051,0,.076,0a.736.736,0,0,0,.569-.269l3.352-4.088,5.274-.4a.734.734,0,0,0,.6-1.072l-4.273-8.216a3.2,3.2,0,0,1,.795-.4,4.678,4.678,0,0,0,3.216-4.441,4.907,4.907,0,0,0-.1-.94,3.466,3.466,0,0,1-.068-.663,3.212,3.212,0,0,1,.813-2.136A4.642,4.642,0,0,0,43.764,20.382ZM14.38,40.281l-3.993-.3,3.5-6.731c.006.013.014.025.021.037a3.237,3.237,0,0,1,.18.428A4.676,4.676,0,0,0,16.4,36.4Zm3.843,3.772-2.537-3.094,2.124-4.085a4.461,4.461,0,0,0,1.663-.043,3.474,3.474,0,0,1,.649-.066c.071,0,.137.012.206.016a3.191,3.191,0,0,1,1.294.363c.051.027.1.045.154.075l0,0Zm14.319,0L28.987,37.22a3.326,3.326,0,0,1,.506-.247,3.2,3.2,0,0,1,.964-.193c.063,0,.122-.015.186-.015a3.476,3.476,0,0,1,.573.058c.026,0,.05,0,.076.008l.032,0c.2.037.376.061.548.076.066.006.13.008.194.011s.115.009.168.009c.026,0,.051-.006.077-.006a4.012,4.012,0,0,0,.632-.05h.013l2.123,4.084Zm7.835-4.072-3.992.3-2.011-3.869c.051-.026.1-.062.147-.09.074-.042.145-.087.216-.133.1-.066.208-.13.306-.2a4.678,4.678,0,0,0,.431-.366c.063-.061.12-.128.179-.193.095-.1.187-.206.272-.316.051-.067.1-.136.148-.206.086-.123.164-.251.238-.383.034-.062.07-.122.1-.185a4.687,4.687,0,0,0,.264-.623l.007-.016a3.2,3.2,0,0,1,.2-.434Zm1.107-17.467,0,0a4.678,4.678,0,0,0-1.186,3.114,5,5,0,0,0,.094.942,3.478,3.478,0,0,1,.075.66,3.208,3.208,0,0,1-2.206,3.044,4.661,4.661,0,0,0-2.083,1.4c-.028.033-.059.063-.086.1-.08.1-.151.2-.223.307-.035.051-.073.1-.106.151-.076.121-.143.249-.207.377-.019.038-.042.074-.06.112a4.6,4.6,0,0,0-.211.528,3.259,3.259,0,0,1-.179.425c-.023.047-.05.091-.075.136q-.072.128-.154.247c-.037.053-.074.107-.114.158s-.1.118-.151.175a3.209,3.209,0,0,1-.728.6l-.047.029a3.233,3.233,0,0,1-.324.163l-.025.011a3.259,3.259,0,0,1-.357.129c-.038.012-.075.019-.113.029-.088.022-.174.05-.264.064l-.012,0a3.213,3.213,0,0,1-.455.037c-.049,0-.1,0-.15,0s-.093,0-.143-.009c-.128-.012-.262-.03-.413-.059a5.117,5.117,0,0,0-.568-.078c-.078-.006-.153,0-.23-.006-.107,0-.215-.011-.321-.007-.149,0-.3.021-.442.04-.03,0-.061,0-.091.008a4.53,4.53,0,0,0-1.482.492l-.009,0a4.677,4.677,0,0,0-.411.252l-.043.027c-.122.085-.239.178-.354.275-.021.018-.044.032-.064.05l0,0c-.014.012-.029.022-.044.035a3.211,3.211,0,0,1-4.265,0l-.039-.033-.022-.017c-.072-.062-.149-.116-.224-.173s-.126-.1-.192-.148-.109-.066-.163-.1c-.1-.06-.19-.123-.289-.176-.024-.013-.049-.022-.074-.034a4.649,4.649,0,0,0-3.057-.413,2.836,2.836,0,0,1-1.565-.065,3.2,3.2,0,0,1-2.141-2.068,4.555,4.555,0,0,0-1.2-1.9l-.006-.006-.007-.007,0,0a4.5,4.5,0,0,0-1.759-1.063A3.209,3.209,0,0,1,10.3,27.235a3.465,3.465,0,0,1,.075-.662,5.021,5.021,0,0,0,.094-.94,4.681,4.681,0,0,0-1.189-3.118,3.209,3.209,0,0,1,0-4.268,4.678,4.678,0,0,0,1.185-3.114,5,5,0,0,0-.094-.942,3.478,3.478,0,0,1-.075-.66,3.208,3.208,0,0,1,2.206-3.044,4.673,4.673,0,0,0,2.978-2.977,3.145,3.145,0,0,1,.526-.98A3.23,3.23,0,0,1,18.529,5.3a3.511,3.511,0,0,1,.661.074,4.6,4.6,0,0,0,3.973-1.028.769.769,0,0,0,.087-.067,3.21,3.21,0,0,1,4.269,0,4.707,4.707,0,0,0,4.056,1.091,3.524,3.524,0,0,1,.661-.074,3.232,3.232,0,0,1,2.519,1.228,3.151,3.151,0,0,1,.525.979,4.671,4.671,0,0,0,2.974,2.976,3.209,3.209,0,0,1,2.21,3.045,3.465,3.465,0,0,1-.075.662,5.021,5.021,0,0,0-.094.94,4.681,4.681,0,0,0,1.189,3.118,3.209,3.209,0,0,1,0,4.265Z" transform="translate(-7 -2)" fill="#fff"/>
  <path id="Path_47" data-name="Path 47" d="M36.4,20.463l-4.216-.825L30.1,15.883a1.375,1.375,0,0,0-2.4,0l-2.087,3.755-4.216.825a1.376,1.376,0,0,0-.743,2.287l2.926,3.145-.518,4.266A1.376,1.376,0,0,0,25,31.573l3.9-1.811,3.9,1.811a1.376,1.376,0,0,0,1.945-1.413L34.221,25.9l2.926-3.145a1.376,1.376,0,0,0-.743-2.287Zm-3.29,4.463a1.373,1.373,0,0,0-.358,1.1l.5,4.139L29.477,28.41a1.374,1.374,0,0,0-1.16,0l-3.781,1.757.5-4.138a1.371,1.371,0,0,0-.358-1.1l-2.84-3.052,4.092-.8a1.372,1.372,0,0,0,.938-.682L28.9,16.748l2.026,3.644a1.372,1.372,0,0,0,.938.681l4.092.8Z" transform="translate(-10.516 -5.488)" fill="#fff"/>
  <path id="Path_48" data-name="Path 48" d="M27.251,8.588A13.192,13.192,0,1,0,40.443,21.78,13.192,13.192,0,0,0,27.251,8.588Zm0,24.913A11.721,11.721,0,1,1,38.972,21.78,11.721,11.721,0,0,1,27.251,33.5Z" transform="translate(-8.869 -3.744)" fill="#fff"/>
</svg>
