<svg xmlns="http://www.w3.org/2000/svg" width="44.063" height="43.779" viewBox="0 0 44.063 43.779">
  <path id="Path_50" data-name="Path 50" d="M22.825.794a5.231,5.231,0,0,0-1.047,10.36v6.439a13.578,13.578,0,0,0-7.813,3.232L10.41,17.276a5.182,5.182,0,0,0,.875-2.876,5.263,5.263,0,1,0-2.361,4.36l3.555,3.547a13.571,13.571,0,0,0,8.073,22.252,1.047,1.047,0,1,0,.348-2.065,11.519,11.519,0,0,1-6.942-3.98l1.832-1.827a1.046,1.046,0,0,1,.738-.311H29.12a1.049,1.049,0,0,1,.744.311l1.826,1.821a11.527,11.527,0,0,1-6.94,3.974,1.047,1.047,0,1,0,.348,2.065A13.564,13.564,0,0,0,33.171,22.3l3.553-3.545a5.25,5.25,0,1,0-1.484-1.48l-3.553,3.545a13.587,13.587,0,0,0-7.811-3.23V11.153A5.232,5.232,0,0,0,22.825.794Zm0,2.093a3.14,3.14,0,1,1-3.147,3.14A3.128,3.128,0,0,1,22.825,2.887ZM6.039,11.26A3.14,3.14,0,1,1,2.892,14.4,3.128,3.128,0,0,1,6.039,11.26Zm33.572,0a3.14,3.14,0,1,1-3.147,3.14A3.128,3.128,0,0,1,39.611,11.26ZM22.825,19.632A11.492,11.492,0,0,1,32.894,36.75l-1.547-1.543a3.158,3.158,0,0,0-2.227-.924H27.5A6.238,6.238,0,0,0,29.12,30.1a6.3,6.3,0,0,0-12.593,0,6.238,6.238,0,0,0,1.621,4.184H16.528a3.151,3.151,0,0,0-2.221.924l-1.553,1.549A11.5,11.5,0,0,1,22.825,19.632Zm0,6.278a4.187,4.187,0,1,1-4.2,4.188A4.179,4.179,0,0,1,22.823,25.91Z" transform="translate(-0.794 -0.794)" fill="#fff"/>
</svg>
