<svg id="Group_212" data-name="Group 212" xmlns="http://www.w3.org/2000/svg" width="47.323" height="47.323" viewBox="0 0 47.323 47.323">
  <path id="Path_51" data-name="Path 51" d="M22.225,2.27a3.25,3.25,0,0,1,5.029,0L29.4,4.894a1.083,1.083,0,0,0,1.221.327l3.173-1.2a3.25,3.25,0,0,1,4.355,2.515L38.7,9.885a1.083,1.083,0,0,0,.894.894l3.347.549a3.25,3.25,0,0,1,2.514,4.355l-1.2,3.173a1.083,1.083,0,0,0,.327,1.221l2.625,2.149a3.249,3.249,0,0,1,0,5.029L44.586,29.4a1.083,1.083,0,0,0-.327,1.221l1.2,3.173a3.25,3.25,0,0,1-2.514,4.355L39.6,38.7a1.083,1.083,0,0,0-.894.894l-.549,3.347A3.25,3.25,0,0,1,33.8,45.458l-3.173-1.2a1.084,1.084,0,0,0-1.221.327l-2.149,2.625a3.25,3.25,0,0,1-5.029,0l-2.149-2.625a1.084,1.084,0,0,0-1.221-.327l-3.173,1.2a3.25,3.25,0,0,1-4.355-2.515L10.778,39.6a1.083,1.083,0,0,0-.894-.894l-3.347-.549A3.25,3.25,0,0,1,4.022,33.8l1.2-3.173A1.083,1.083,0,0,0,4.894,29.4L2.269,27.255a3.25,3.25,0,0,1,0-5.029l2.625-2.149a1.083,1.083,0,0,0,.327-1.221l-1.2-3.173a3.25,3.25,0,0,1,2.515-4.355l3.347-.549a1.083,1.083,0,0,0,.894-.894l.549-3.347a3.25,3.25,0,0,1,4.355-2.515l3.173,1.2a1.083,1.083,0,0,0,1.221-.327Zm3.353,1.372a1.083,1.083,0,0,0-1.676,0L21.753,6.267a3.25,3.25,0,0,1-3.663.981l-3.173-1.2a1.083,1.083,0,0,0-1.452.838l-.549,3.347a3.25,3.25,0,0,1-2.681,2.681l-3.347.549a1.083,1.083,0,0,0-.838,1.452l1.2,3.173a3.25,3.25,0,0,1-.981,3.663L3.642,23.9a1.083,1.083,0,0,0,0,1.676l2.625,2.149a3.25,3.25,0,0,1,.981,3.663l-1.2,3.173a1.083,1.083,0,0,0,.838,1.452l3.347.549a3.25,3.25,0,0,1,2.681,2.681l.549,3.348a1.083,1.083,0,0,0,1.452.838l3.173-1.2a3.25,3.25,0,0,1,3.663.981L23.9,45.838a1.083,1.083,0,0,0,1.676,0l2.149-2.625a3.25,3.25,0,0,1,3.663-.981l3.173,1.2a1.083,1.083,0,0,0,1.452-.838l.549-3.348a3.25,3.25,0,0,1,2.682-2.681l3.347-.549a1.083,1.083,0,0,0,.838-1.452l-1.2-3.173a3.25,3.25,0,0,1,.981-3.663l2.625-2.149a1.083,1.083,0,0,0,0-1.676l-2.625-2.149a3.25,3.25,0,0,1-.981-3.663l1.2-3.173a1.083,1.083,0,0,0-.838-1.452l-3.347-.549a3.25,3.25,0,0,1-2.682-2.681l-.549-3.347a1.083,1.083,0,0,0-1.452-.838l-3.173,1.2a3.25,3.25,0,0,1-3.663-.981Z" transform="translate(-1.078 -1.079)" fill="#fff"/>
  <path id="Path_52" data-name="Path 52" d="M31.51,9.678,16.345,24.844a1.083,1.083,0,0,1-1.532,0L6.146,16.178l1.532-1.532,7.9,7.9,14.4-14.4Z" transform="translate(4.834 7.166)" fill="#fff"/>
</svg>
