<svg id="layer1" xmlns="http://www.w3.org/2000/svg" width="43.051" height="46.64" viewBox="0 0 43.051 46.64">
  <path id="path4755" d="M7.393,3a.9.9,0,0,0-.116.021A4.485,4.485,0,0,0,3,7.485v2.691h7.175V46.052H31.7v2.691a.9.9,0,0,0,1.394.746l2.193-1.461,2.193,1.461a.9.9,0,0,0,1.394-.746V46.052h7.175V7.545q0-.03,0-.06A4.5,4.5,0,0,0,41.567,3H7.484a.9.9,0,0,0-.091,0Zm.091,1.794a2.665,2.665,0,0,1,2.691,2.691v.9H4.794v-.9A2.665,2.665,0,0,1,7.484,4.794Zm3.563,0H41.567a2.665,2.665,0,0,1,2.691,2.691V44.258H38.876v-3.2a5.381,5.381,0,1,0-7.175,0v3.2H11.969V7.485A4.442,4.442,0,0,0,11.048,4.794Zm9.89,3.588v1.794h14.35V8.382Zm-5.381,5.381v1.794H40.67V13.763Zm0,3.588v1.794H40.67V17.351Zm0,3.588v1.794H40.67V20.938Zm0,3.588V26.32H40.67V24.526Zm0,3.588v1.794H40.67V28.114Zm0,3.588v1.794H28.113V31.7Zm19.732,1.794A3.588,3.588,0,1,1,31.7,37.083,3.574,3.574,0,0,1,35.288,33.495Zm-1.794,8.636a5,5,0,0,0,3.588,0v4.936l-1.3-.865a.9.9,0,0,0-.995,0l-1.3.865Z" transform="translate(-3 -2.999)" fill="#fff"/>
</svg>
