<svg xmlns="http://www.w3.org/2000/svg" width="90.026" height="91.943" viewBox="0 0 90.026 91.943">
  <g id="Group_288" data-name="Group 288" transform="translate(-3.515 -2.908)">
    <circle id="Ellipse_48" data-name="Ellipse 48" cx="2.873" cy="2.873" r="2.873" transform="translate(83.963 43.134)" fill="#0075d3"/>
    <circle id="Ellipse_49" data-name="Ellipse 49" cx="2.873" cy="2.873" r="2.873" transform="translate(3.515 54.627)" fill="#0075d3"/>
    <circle id="Ellipse_50" data-name="Ellipse 50" cx="1.915" cy="1.915" r="1.915" transform="translate(62.894 33.557)" fill="#0075d3"/>
    <circle id="Ellipse_51" data-name="Ellipse 51" cx="1.915" cy="1.915" r="1.915" transform="translate(89.71 71.866)" fill="#0075d3"/>
    <circle id="Ellipse_52" data-name="Ellipse 52" cx="1.915" cy="1.915" r="1.915" transform="translate(11.178 83.358)" fill="#0075d3"/>
    <circle id="Ellipse_53" data-name="Ellipse 53" cx="1.915" cy="1.915" r="1.915" transform="translate(5.43 31.641)" fill="#0075d3"/>
    <path id="Path_58" data-name="Path 58" d="M65.571,84.3H25.979A12.78,12.78,0,0,1,13.212,71.535V30.669a9.578,9.578,0,1,1,19.156,0v5.75a9.572,9.572,0,0,1,15.156,5.874,9.573,9.573,0,0,1,15.324,5.746,9.573,9.573,0,0,1,15.491,7.53V71.534A12.783,12.783,0,0,1,65.571,84.3ZM22.79,24.921a5.752,5.752,0,0,0-5.746,5.746V71.534a8.945,8.945,0,0,0,8.935,8.935H65.571a8.944,8.944,0,0,0,8.935-8.935V55.569a5.746,5.746,0,1,0-11.491,0,1.915,1.915,0,0,1-3.83,0V49.823a5.746,5.746,0,0,0-11.491,0,1.915,1.915,0,1,1-3.83,0V44.077a5.746,5.746,0,1,0-11.491,0,1.915,1.915,0,1,1-3.83,0V30.669A5.759,5.759,0,0,0,22.79,24.921Z" transform="translate(5.627 10.55)" fill="#0075d3"/>
    <path id="Path_59" data-name="Path 59" d="M65.318,73.781A1.916,1.916,0,0,1,63.4,71.866V66.12a1.915,1.915,0,1,1,3.83,0v5.746A1.915,1.915,0,0,1,65.318,73.781ZM49.994,75.7a1.916,1.916,0,0,1-1.915-1.915V60.373a1.915,1.915,0,0,1,3.83,0V73.781A1.915,1.915,0,0,1,49.994,75.7ZM34.671,77.612A1.916,1.916,0,0,1,32.756,75.7V54.626a1.915,1.915,0,1,1,3.83,0V75.7A1.915,1.915,0,0,1,34.671,77.612Zm-9.529-50.55a1.916,1.916,0,0,1-.891-.22l-5.711-3-5.713,3a1.915,1.915,0,0,1-2.78-2.02l1.09-6.36-4.621-4.5a1.914,1.914,0,0,1,1.062-3.266l6.386-.928L16.82,3.978A1.916,1.916,0,0,1,18.538,2.91h0a1.916,1.916,0,0,1,1.718,1.068l2.855,5.787,6.386.928a1.916,1.916,0,0,1,1.062,3.268l-4.621,4.5,1.09,6.36a1.911,1.911,0,0,1-1.887,2.238ZM11.971,13.925l2.563,2.5a1.916,1.916,0,0,1,.552,1.7l-.605,3.527,3.168-1.666a1.912,1.912,0,0,1,1.783,0L22.6,21.646l-.605-3.527a1.918,1.918,0,0,1,.552-1.7l2.563-2.5-3.541-.515a1.915,1.915,0,0,1-1.443-1.048L18.54,9.153l-1.585,3.209a1.915,1.915,0,0,1-1.443,1.048ZM54.4,27.062a1.916,1.916,0,0,1-.891-.22l-5.711-3-5.713,3a1.915,1.915,0,0,1-2.78-2.02l1.09-6.36-4.621-4.5a1.916,1.916,0,0,1,1.062-3.268l6.386-.928,2.855-5.787A1.916,1.916,0,0,1,47.8,2.908h0a1.916,1.916,0,0,1,1.718,1.068l2.855,5.787,6.386.928A1.917,1.917,0,0,1,59.82,13.96l-4.621,4.5,1.09,6.36A1.911,1.911,0,0,1,54.4,27.062ZM41.232,13.925l2.563,2.5a1.916,1.916,0,0,1,.552,1.7l-.605,3.527,3.168-1.666a1.912,1.912,0,0,1,1.783,0l3.168,1.666-.605-3.527a1.918,1.918,0,0,1,.552-1.7l2.563-2.5-3.541-.515a1.915,1.915,0,0,1-1.443-1.048L47.8,9.153l-1.583,3.209a1.915,1.915,0,0,1-1.443,1.048ZM83.664,27.062a1.916,1.916,0,0,1-.891-.22l-5.711-3-5.711,3a1.915,1.915,0,0,1-2.78-2.02l1.09-6.36-4.621-4.5a1.916,1.916,0,0,1,1.06-3.268l6.386-.928,2.855-5.787a1.915,1.915,0,0,1,3.435,0l2.855,5.787,6.386.928a1.917,1.917,0,0,1,1.062,3.269l-4.621,4.5,1.09,6.36a1.911,1.911,0,0,1-1.887,2.238ZM70.493,13.925l2.563,2.5a1.916,1.916,0,0,1,.552,1.7L73,21.646l3.168-1.666a1.912,1.912,0,0,1,1.783,0l3.168,1.666-.605-3.527a1.918,1.918,0,0,1,.551-1.7l2.563-2.5L80.09,13.41a1.915,1.915,0,0,1-1.443-1.048L77.061,9.153l-1.583,3.209a1.915,1.915,0,0,1-1.443,1.048Z" transform="translate(1.406 0)" fill="#0075d3"/>
  </g>
</svg>
