<svg xmlns="http://www.w3.org/2000/svg" width="116" height="116" viewBox="0 0 116 116">
  <g id="Group_146" data-name="Group 146" transform="translate(-1.5 -1021.862)">
    <path id="Path_31" data-name="Path 31" d="M5,1059.162l28-24m-4,80-24-40m60-4,28-28m-8,52-20-12m-56-12,44,4m-10,46,42-14m-26-82.4,30,4.4m12,14-4,52" transform="translate(10.5 8.701)" fill="none" stroke="#0075d3" stroke-width="1"/>
    <circle id="Ellipse_39" data-name="Ellipse 39" cx="14" cy="14" r="14" transform="translate(41.5 1021.862)" fill="#0075d3"/>
    <circle id="Ellipse_40" data-name="Ellipse 40" cx="10" cy="10" r="10" transform="translate(1.5 1065.862)" fill="#0075d3"/>
    <circle id="Ellipse_41" data-name="Ellipse 41" cx="8" cy="8" r="8" transform="translate(37.5 1121.862)" fill="#0075d3"/>
    <circle id="Ellipse_42" data-name="Ellipse 42" cx="8" cy="8" r="8" transform="translate(61.5 1077.862)" fill="#0075d3"/>
    <path id="Path_32" data-name="Path 32" d="M8,0A8,8,0,1,1,0,8,8,8,0,0,1,8,0Z" transform="translate(93.5 1101.862)" fill="#0075d3"/>
    <circle id="Ellipse_44" data-name="Ellipse 44" cx="10" cy="10" r="10" transform="translate(97.5 1033.862)" fill="#0075d3"/>
  </g>
</svg>
