<svg xmlns="http://www.w3.org/2000/svg" width="300" height="375" viewBox="0 0 300 375">
  <g id="Group_142" data-name="Group 142" transform="translate(-120 -1197)">
    <rect id="Rectangle_48" data-name="Rectangle 48" width="200" height="200" rx="100" transform="translate(170 1197)" fill="#fff"/>
    <text id="Learn_In_demand_skills" data-name="Learn In demand skills" transform="translate(120 1421)" fill="#052d60" font-size="24" font-family="SegoeUI-Bold, Segoe UI" font-weight="700"><tspan x="21" y="26">Learn In Demand Skills</tspan></text>
    <text id="Learn_the_skills_that_are_relevant_to_the_Industry_with_the_one_and_only_of_its_kind_Salesforce_Trailblazer" data-name="Learn the skills that are relevant to the Industry with the one and only of its kind Salesforce Trailblazer" transform="translate(120 1466)" fill="#052d60" font-size="18" font-family="SegoeUI, Segoe UI"><tspan x="13" y="19">Learn the skills that are relevant to </tspan><tspan x="2" y="43">the Industry with the one and only of </tspan><tspan x="33" y="67">its kind </tspan><tspan y="67" font-family="SegoeUI-Semibold, Segoe UI" font-weight="600">Salesforce Trailblazer</tspan></text>
    <g id="Group_287" data-name="Group 287" transform="translate(195.895 1194.377)">
      <path id="Path_56" data-name="Path 56" d="M128.211,81.118V66.295A9.147,9.147,0,0,0,119.166,57H29.044A9.147,9.147,0,0,0,20,66.295v72.657a9.147,9.147,0,0,0,9.044,9.295h90.123a9.147,9.147,0,0,0,9.045-9.295V81.118ZM29.044,60.668h90.123a5.476,5.476,0,0,1,5.377,5.627V79.238H23.668V66.295A5.476,5.476,0,0,1,29.044,60.668Zm90.123,83.91H29.044a5.476,5.476,0,0,1-5.376-5.627V82.906H124.543v56.045A5.476,5.476,0,0,1,119.166,144.578Z" fill="#0075d3"/>
      <path id="Path_57" data-name="Path 57" d="M68.468,97.8a6.881,6.881,0,1,0-6.641-6.876A6.769,6.769,0,0,0,68.468,97.8Zm0-10.085A3.218,3.218,0,1,1,65.5,90.92,3.1,3.1,0,0,1,68.468,87.712ZM84.09,97.8a6.881,6.881,0,1,0-6.641-6.876A6.769,6.769,0,0,0,84.09,97.8Zm0-10.085a3.218,3.218,0,1,1-2.973,3.208A3.1,3.1,0,0,1,84.09,87.712ZM52.847,97.8a6.881,6.881,0,1,0-6.641-6.876A6.769,6.769,0,0,0,52.847,97.8Zm0-10.085a3.218,3.218,0,1,1-2.973,3.208A3.1,3.1,0,0,1,52.847,87.712Zm47.188,54.746V126.072c0-.038.039-.074.037-.111s.027-.055.027-.083a1.824,1.824,0,0,0-1.191-1.7l-21.9-8.051a1.826,1.826,0,0,0-1.263,0l-21.9,8.051a1.834,1.834,0,0,0-1.2,1.7,1.806,1.806,0,0,0,1.137,1.726l5.9,2.31v15.478a1.864,1.864,0,0,0,1.226,1.719,44.165,44.165,0,0,0,30.86,0,1.8,1.8,0,0,0,1.157-1.719V129.913l3.439-1.337v13.908a4.808,4.808,0,0,0-2.606,4.1,4.505,4.505,0,1,0,6.274-4.131ZM63.353,144.1v-3.243A44.8,44.8,0,0,0,76.307,142.8a43.658,43.658,0,0,0,12.953-1.946V144.1A40.483,40.483,0,0,1,63.353,144.1ZM89.26,137a40.474,40.474,0,0,1-25.906,0v-5.659l12.332,4.787a1.919,1.919,0,0,0,.681.125,1.65,1.65,0,0,0,.629-.125l12.264-4.787Zm1.377-10.1a1.852,1.852,0,0,0-.21.082l-14.043,5.466L62.34,126.985a1.759,1.759,0,0,0-.211-.082l-2.467-.961L76.383,119.8l16.72,6.144Zm7.677,20.527a.843.843,0,1,1,.843-.843A.843.843,0,0,1,98.314,147.431Zm35.812-18.691H106.454a1.834,1.834,0,0,0,0,3.668h27.672a1.834,1.834,0,0,0,0-3.668Zm0,5.961H106.454a1.834,1.834,0,0,0,0,3.668h27.672a1.834,1.834,0,0,0,0-3.668Zm0,6.19H106.454a1.834,1.834,0,0,0,0,3.668h27.672a1.834,1.834,0,0,0,0-3.668Zm-27.672-14.673h9.433a1.834,1.834,0,1,0,0-3.668h-9.433a1.834,1.834,0,0,0,0,3.668Z" transform="translate(-20.198 -20.844)" fill="#0075d3"/>
    </g>
  </g>
</svg>
